<?xml version="1.0" encoding="UTF-8"?>
<svg xmlns="http://www.w3.org/2000/svg" xmlns:xlink="http://www.w3.org/1999/xlink" width="64px" height="43px" viewBox="0 0 63 43" version="1.1">
<g id="surface1">
<path style=" stroke:none;fill-rule:nonzero;fill:rgb(0%,0%,0%);fill-opacity:1;" d="M 62.929688 4.078125 C 62.929688 17.078125 62.929688 30.078125 62.929688 43.09375 C 42.945312 43.09375 22.960938 43.09375 2.945312 43.074219 C 2.460938 42.226562 1.746094 41.886719 0.839844 41.894531 C 0.597656 41.894531 0.347656 41.847656 0.253906 42.167969 C 0.253906 28.148438 0.253906 14.128906 0.253906 0.09375 C 17.777344 0.09375 35.300781 0.09375 52.847656 0.105469 C 52.730469 0.21875 52.773438 0.296875 52.867188 0.417969 C 53.609375 1.414062 54.472656 2.222656 55.738281 2.460938 C 55.871094 2.484375 55.996094 2.550781 56.128906 2.589844 C 57.304688 2.917969 58.429688 3.503906 59.707031 3.335938 C 59.820312 3.320312 59.957031 3.351562 60.0625 3.40625 C 60.910156 3.847656 61.773438 4.191406 62.753906 4.039062 C 62.808594 4.03125 62.871094 4.0625 62.929688 4.078125 M 40.835938 14.308594 C 40.15625 14.308594 39.472656 14.308594 38.789062 14.308594 C 37.816406 14.308594 37.816406 14.308594 37.816406 15.277344 C 37.816406 16.203125 37.820312 17.128906 37.8125 18.054688 C 37.8125 18.210938 37.875 18.390625 37.734375 18.53125 C 37.546875 18.46875 37.546875 18.289062 37.496094 18.160156 C 37.058594 17.074219 36.621094 15.988281 36.207031 14.894531 C 36.050781 14.476562 35.824219 14.292969 35.367188 14.300781 C 33.816406 14.324219 32.269531 14.320312 30.722656 14.304688 C 30.289062 14.296875 30.050781 14.476562 29.898438 14.871094 C 28.339844 18.921875 26.769531 22.96875 25.210938 27.015625 C 25.015625 27.519531 25.0625 27.582031 25.582031 27.585938 C 28.726562 27.585938 31.867188 27.585938 35.007812 27.585938 C 35.527344 27.585938 35.5625 27.535156 35.382812 27.015625 C 35.007812 25.941406 34.597656 24.878906 34.246094 23.796875 C 34.105469 23.351562 33.878906 23.179688 33.425781 23.203125 C 32.855469 23.234375 32.285156 23.207031 31.613281 23.207031 C 32.050781 21.882812 32.476562 20.671875 32.992188 19.457031 C 33.257812 19.640625 33.277344 19.871094 33.347656 20.066406 C 34.195312 22.445312 35.039062 24.820312 35.878906 27.203125 C 35.96875 27.453125 36.09375 27.585938 36.371094 27.585938 C 39.296875 27.582031 42.226562 27.582031 45.15625 27.585938 C 45.464844 27.589844 45.59375 27.453125 45.589844 27.140625 C 45.582031 26.601562 45.570312 26.058594 45.59375 25.519531 C 45.613281 25.085938 45.5 24.714844 45.273438 24.34375 C 44.410156 22.929688 43.5625 21.5 42.714844 20.074219 C 42.625 19.921875 42.488281 19.78125 42.542969 19.558594 C 42.710938 19.429688 42.910156 19.457031 43.105469 19.457031 C 43.773438 19.453125 44.441406 19.453125 45.109375 19.449219 C 45.273438 19.449219 45.476562 19.476562 45.550781 19.289062 C 45.664062 19.003906 45.886719 19.011719 46.113281 19.007812 C 46.734375 19 47.359375 18.988281 47.980469 19 C 48.367188 19.007812 48.523438 18.847656 48.515625 18.449219 C 48.5 17.320312 48.511719 16.195312 48.511719 15.066406 C 48.511719 14.355469 48.464844 14.308594 47.757812 14.308594 C 45.480469 14.308594 43.207031 14.308594 40.835938 14.308594 M 9.015625 9.894531 C 5.253906 11.984375 3.371094 16.542969 4.515625 20.773438 C 5.671875 25.03125 9.59375 27.964844 13.984375 27.851562 C 17.058594 27.773438 21.265625 25.179688 21.707031 23.027344 C 20.738281 23.027344 19.785156 23.007812 18.832031 23.039062 C 18.421875 23.050781 18.320312 22.910156 18.332031 22.507812 C 18.355469 21.425781 18.34375 20.347656 18.335938 19.265625 C 18.335938 18.613281 18.265625 18.542969 17.636719 18.535156 C 17.320312 18.53125 17 18.542969 16.683594 18.519531 C 16.363281 18.496094 16.199219 18.585938 16.105469 18.9375 C 15.777344 20.140625 14.578125 20.917969 13.335938 20.78125 C 12.152344 20.652344 11.132812 19.648438 11.0625 18.542969 C 10.972656 17.179688 11.710938 16.035156 12.871094 15.734375 C 14.171875 15.398438 15.542969 15.933594 15.957031 17.121094 C 16.230469 17.898438 16.652344 18.054688 17.332031 17.957031 C 17.394531 17.949219 17.457031 17.957031 17.515625 17.953125 C 18.289062 17.949219 18.339844 17.894531 18.335938 17.117188 C 18.324219 14.910156 18.300781 12.699219 18.300781 10.492188 C 18.300781 10.066406 18.167969 9.808594 17.777344 9.628906 C 14.835938 8.25 11.9375 8.324219 9.015625 9.894531 M 22.34375 22.21875 C 22.679688 22.21875 23.011719 22.199219 23.34375 22.222656 C 23.785156 22.257812 23.933594 22.070312 23.925781 21.628906 C 23.902344 20.550781 23.914062 19.46875 23.917969 18.386719 C 23.917969 17.757812 23.921875 17.757812 24.558594 17.757812 C 25.105469 17.757812 25.652344 17.757812 26.199219 17.757812 C 26.789062 17.761719 26.792969 17.761719 26.792969 18.382812 C 26.796875 18.960938 26.792969 19.539062 26.792969 20.167969 C 27.042969 20.027344 27.066406 19.847656 27.125 19.699219 C 27.773438 18.035156 28.496094 16.398438 29.027344 14.695312 C 29.355469 13.644531 29.863281 13.25 30.910156 13.398438 C 31.429688 13.472656 31.554688 13.292969 31.558594 12.757812 C 31.566406 11.695312 31.542969 10.628906 31.570312 9.5625 C 31.582031 9.113281 31.398438 8.941406 30.988281 8.941406 C 29.761719 8.945312 28.53125 8.949219 27.300781 8.941406 C 26.917969 8.941406 26.777344 9.101562 26.785156 9.503906 C 26.808594 10.632812 26.78125 11.757812 26.800781 12.886719 C 26.804688 13.269531 26.667969 13.402344 26.296875 13.386719 C 25.675781 13.367188 25.050781 13.363281 24.429688 13.390625 C 24.023438 13.410156 23.898438 13.242188 23.90625 12.847656 C 23.921875 11.769531 23.914062 10.6875 23.910156 9.605469 C 23.90625 9.058594 23.808594 8.929688 23.277344 8.945312 C 22.121094 8.984375 20.972656 8.976562 19.816406 8.949219 C 19.25 8.933594 19.148438 9.0625 19.148438 9.625 C 19.144531 13.640625 19.148438 17.65625 19.136719 21.667969 C 19.136719 22.101562 19.300781 22.234375 19.703125 22.222656 C 20.550781 22.203125 21.402344 22.21875 22.34375 22.21875 M 55.144531 27.53125 C 56.453125 25.34375 57.761719 23.15625 59.070312 20.96875 C 59.160156 20.816406 59.335938 20.660156 59.226562 20.472656 C 59.125 20.289062 58.902344 20.335938 58.726562 20.335938 C 57.253906 20.332031 55.78125 20.34375 54.308594 20.324219 C 53.941406 20.320312 53.722656 20.457031 53.550781 20.78125 C 53.121094 21.578125 52.691406 22.375 52.210938 23.144531 C 51.917969 23.613281 51.863281 24 52.1875 24.484375 C 52.398438 24.808594 52.695312 25.128906 52.683594 25.597656 C 52.382812 25.582031 52.328125 25.347656 52.226562 25.171875 C 51.378906 23.695312 50.527344 22.21875 49.6875 20.734375 C 49.523438 20.445312 49.324219 20.320312 48.992188 20.328125 C 48.234375 20.347656 47.476562 20.332031 46.714844 20.332031 C 45.957031 20.332031 45.199219 20.324219 44.441406 20.339844 C 44.023438 20.347656 43.925781 20.53125 44.117188 20.902344 C 44.191406 21.039062 44.273438 21.167969 44.351562 21.300781 C 45.878906 23.839844 47.402344 26.382812 48.933594 28.917969 C 49.125 29.234375 49.222656 29.546875 49.214844 29.917969 C 49.199219 30.984375 49.21875 32.046875 49.207031 33.113281 C 49.203125 33.460938 49.328125 33.621094 49.6875 33.617188 C 50.960938 33.605469 52.234375 33.605469 53.507812 33.617188 C 53.863281 33.621094 54 33.472656 53.992188 33.121094 C 53.980469 32.582031 53.988281 32.042969 53.988281 31.5 C 53.992188 29.375 53.992188 29.375 55.144531 27.53125 Z M 55.144531 27.53125 "/>
<path style=" stroke:none;fill-rule:nonzero;fill:rgb(0%,0%,0%);fill-opacity:1;" d="M 40.8125 21.222656 C 40.8125 22.878906 40.8125 24.492188 40.8125 26.105469 C 40.757812 26.121094 40.699219 26.132812 40.644531 26.148438 C 39.722656 23.8125 38.800781 21.476562 37.871094 19.121094 C 38.222656 18.929688 38.53125 19.007812 38.824219 19 C 39.324219 18.988281 39.824219 19.003906 40.324219 19.003906 C 40.664062 19.003906 40.824219 19.15625 40.816406 19.511719 C 40.804688 20.066406 40.8125 20.621094 40.8125 21.222656 Z M 40.8125 21.222656 "/>
</g>
</svg>
