<?xml version="1.0" encoding="UTF-8"?>
<svg xmlns="http://www.w3.org/2000/svg" xmlns:xlink="http://www.w3.org/1999/xlink" width="59px" height="43px" viewBox="0 0 59 43" version="1.1">
<g id="surface1">
<path style=" stroke:none;fill-rule:nonzero;fill:rgb(100%,97.647059%,97.647059%);fill-opacity:1;" d="M 32.453125 43.078125 C 21.636719 43.078125 10.855469 43.078125 0.078125 43.078125 C 0.078125 28.746094 0.078125 14.414062 0.078125 0.078125 C 19.746094 0.078125 39.410156 0.078125 59.078125 0.078125 C 59.078125 14.414062 59.078125 28.746094 59.078125 43.078125 C 50.21875 43.078125 41.355469 43.078125 32.453125 43.078125 M 47.660156 23.863281 C 47.105469 22.90625 46.546875 21.953125 46.003906 20.992188 C 45.886719 20.789062 45.769531 20.695312 45.519531 20.699219 C 44.074219 20.714844 42.632812 20.707031 41.1875 20.707031 C 41.09375 20.707031 40.996094 20.722656 40.871094 20.734375 C 40.929688 20.839844 40.964844 20.910156 41.007812 20.976562 C 42.453125 23.363281 43.902344 25.746094 45.335938 28.140625 C 45.464844 28.351562 45.539062 28.628906 45.546875 28.875 C 45.570312 29.839844 45.5625 30.804688 45.550781 31.769531 C 45.546875 32.046875 45.636719 32.128906 45.910156 32.125 C 47.117188 32.113281 48.324219 32.121094 49.53125 32.121094 C 49.605469 32.121094 49.679688 32.097656 49.773438 32.085938 C 49.773438 30.996094 49.761719 29.925781 49.78125 28.859375 C 49.785156 28.632812 49.84375 28.382812 49.957031 28.191406 C 51.367188 25.84375 52.792969 23.507812 54.210938 21.164062 C 54.296875 21.027344 54.375 20.886719 54.476562 20.707031 C 52.847656 20.707031 51.300781 20.699219 49.753906 20.714844 C 49.632812 20.714844 49.460938 20.824219 49.398438 20.929688 C 48.894531 21.78125 48.410156 22.636719 47.929688 23.5 C 47.871094 23.601562 47.882812 23.742188 47.78125 23.886719 C 47.75 23.894531 47.722656 23.898438 47.660156 23.863281 M 27.53125 26.898438 C 29.832031 26.898438 32.132812 26.898438 34.492188 26.898438 C 34.039062 25.644531 33.617188 24.457031 33.171875 23.277344 C 33.132812 23.183594 32.941406 23.09375 32.820312 23.089844 C 32.246094 23.070312 31.671875 23.082031 31.035156 23.082031 C 31.433594 22.011719 31.8125 20.992188 32.21875 19.898438 C 32.296875 20.066406 32.335938 20.132812 32.363281 20.207031 C 33.125 22.324219 33.890625 24.441406 34.636719 26.566406 C 34.730469 26.824219 34.835938 26.90625 35.105469 26.902344 C 37.519531 26.894531 39.933594 26.898438 42.347656 26.898438 C 42.460938 26.894531 42.570312 26.878906 42.695312 26.871094 C 42.695312 26.355469 42.726562 25.878906 42.6875 25.40625 C 42.660156 25.09375 42.589844 24.75 42.433594 24.484375 C 41.769531 23.332031 41.066406 22.203125 40.378906 21.0625 C 40.191406 20.753906 40.011719 20.4375 39.785156 20.054688 C 40.804688 20.054688 41.738281 20.054688 42.675781 20.054688 C 42.691406 19.875 42.703125 19.75 42.714844 19.582031 C 43.558594 19.582031 44.378906 19.582031 45.210938 19.582031 C 45.210938 18.199219 45.210938 16.859375 45.210938 15.511719 C 45.15625 15.5 45.117188 15.484375 45.082031 15.484375 C 42.128906 15.484375 39.175781 15.484375 36.222656 15.480469 C 35.976562 15.476562 35.90625 15.5625 35.910156 15.796875 C 35.921875 16.566406 35.914062 17.332031 35.914062 18.097656 C 35.542969 17.367188 35.238281 16.625 34.960938 15.875 C 34.859375 15.59375 34.726562 15.46875 34.398438 15.472656 C 32.941406 15.496094 31.484375 15.492188 30.027344 15.476562 C 29.738281 15.472656 29.625 15.578125 29.523438 15.835938 C 28.332031 18.914062 27.125 21.992188 25.925781 25.070312 C 25.691406 25.664062 25.46875 26.261719 25.226562 26.898438 C 26.007812 26.898438 26.730469 26.898438 27.53125 26.898438 M 10.027344 25.324219 C 14.554688 28.792969 20.3125 26.558594 22.097656 22.898438 C 21.117188 22.898438 20.152344 22.898438 19.148438 22.898438 C 19.148438 21.578125 19.148438 20.289062 19.148438 18.972656 C 18.546875 18.972656 17.984375 18.960938 17.421875 18.984375 C 17.332031 18.988281 17.199219 19.136719 17.171875 19.242188 C 16.792969 20.671875 15.25 21.351562 13.957031 20.648438 C 13.136719 20.207031 12.679688 19.238281 12.871094 18.34375 C 13.074219 17.402344 13.863281 16.695312 14.789062 16.625 C 15.859375 16.542969 16.769531 17.09375 17.101562 18.027344 C 17.167969 18.210938 17.214844 18.402344 17.273438 18.59375 C 17.898438 18.59375 18.507812 18.59375 19.128906 18.59375 C 19.140625 18.523438 19.15625 18.472656 19.15625 18.425781 C 19.160156 16.242188 19.164062 14.0625 19.148438 11.878906 C 19.148438 11.75 19.015625 11.570312 18.898438 11.507812 C 17.6875 10.851562 16.394531 10.539062 15.011719 10.542969 C 10.746094 10.554688 7.144531 13.851562 6.84375 18.132812 C 6.640625 21.046875 7.722656 23.445312 10.027344 25.324219 M 19.78125 11.476562 C 19.78125 15.078125 19.78125 18.679688 19.78125 22.285156 C 21.207031 22.285156 22.578125 22.285156 23.988281 22.285156 C 23.988281 21.015625 23.988281 19.765625 23.988281 18.511719 C 24.796875 18.511719 25.574219 18.511719 26.386719 18.511719 C 26.386719 19.71875 26.386719 20.890625 26.386719 22.171875 C 26.464844 22 26.5 21.933594 26.527344 21.863281 C 27.390625 19.640625 28.257812 17.417969 29.109375 15.191406 C 29.21875 14.910156 29.359375 14.796875 29.65625 14.820312 C 29.953125 14.847656 30.25 14.828125 30.546875 14.828125 C 30.546875 13.5 30.546875 12.214844 30.546875 10.921875 C 29.144531 10.921875 27.773438 10.921875 26.355469 10.921875 C 26.355469 12.1875 26.355469 13.421875 26.355469 14.65625 C 25.550781 14.65625 24.792969 14.65625 24 14.65625 C 24 14.511719 24 14.382812 24 14.253906 C 24 13.277344 23.988281 12.296875 24.003906 11.320312 C 24.011719 11 23.933594 10.882812 23.59375 10.886719 C 22.4375 10.910156 21.285156 10.894531 20.128906 10.898438 C 20.015625 10.898438 19.90625 10.914062 19.78125 10.925781 C 19.78125 11.109375 19.78125 11.253906 19.78125 11.476562 Z M 19.78125 11.476562 "/>
<path style=" stroke:none;fill-rule:nonzero;fill:rgb(9.411765%,9.019608%,9.019608%);fill-opacity:1;" d="M 27.492188 26.898438 C 26.730469 26.898438 26.007812 26.898438 25.226562 26.898438 C 25.46875 26.261719 25.691406 25.664062 25.925781 25.070312 C 27.125 21.992188 28.332031 18.914062 29.523438 15.835938 C 29.625 15.578125 29.738281 15.472656 30.027344 15.476562 C 31.484375 15.492188 32.941406 15.496094 34.398438 15.472656 C 34.726562 15.46875 34.859375 15.59375 34.960938 15.875 C 35.238281 16.625 35.542969 17.367188 35.914062 18.097656 C 35.914062 17.332031 35.921875 16.566406 35.910156 15.796875 C 35.90625 15.5625 35.976562 15.476562 36.222656 15.480469 C 39.175781 15.484375 42.128906 15.484375 45.082031 15.484375 C 45.117188 15.484375 45.15625 15.5 45.210938 15.511719 C 45.210938 16.859375 45.210938 18.199219 45.210938 19.582031 C 44.378906 19.582031 43.558594 19.582031 42.714844 19.582031 C 42.703125 19.75 42.691406 19.875 42.675781 20.054688 C 41.738281 20.054688 40.804688 20.054688 39.785156 20.054688 C 40.011719 20.4375 40.191406 20.753906 40.378906 21.0625 C 41.066406 22.203125 41.769531 23.332031 42.433594 24.484375 C 42.589844 24.75 42.660156 25.09375 42.6875 25.40625 C 42.726562 25.878906 42.695312 26.355469 42.695312 26.871094 C 42.570312 26.878906 42.460938 26.894531 42.347656 26.898438 C 39.933594 26.898438 37.519531 26.894531 35.105469 26.902344 C 34.835938 26.90625 34.730469 26.824219 34.636719 26.566406 C 33.890625 24.441406 33.125 22.324219 32.363281 20.207031 C 32.335938 20.132812 32.296875 20.066406 32.21875 19.898438 C 31.8125 20.992188 31.433594 22.011719 31.035156 23.082031 C 31.671875 23.082031 32.246094 23.070312 32.820312 23.089844 C 32.941406 23.09375 33.132812 23.183594 33.171875 23.277344 C 33.617188 24.457031 34.039062 25.644531 34.492188 26.898438 C 32.132812 26.898438 29.832031 26.898438 27.492188 26.898438 M 38.359375 24.453125 C 38.390625 24.515625 38.425781 24.574219 38.492188 24.699219 C 38.492188 23.0625 38.496094 21.503906 38.484375 19.949219 C 38.484375 19.832031 38.375 19.609375 38.308594 19.609375 C 37.699219 19.582031 37.089844 19.59375 36.421875 19.59375 C 37.078125 21.234375 37.707031 22.820312 38.359375 24.453125 Z M 38.359375 24.453125 "/>
<path style=" stroke:none;fill-rule:nonzero;fill:rgb(9.411765%,9.019608%,9.019608%);fill-opacity:1;" d="M 10.003906 25.308594 C 7.722656 23.445312 6.640625 21.046875 6.84375 18.132812 C 7.144531 13.851562 10.746094 10.554688 15.011719 10.542969 C 16.394531 10.539062 17.6875 10.851562 18.898438 11.507812 C 19.015625 11.570312 19.148438 11.75 19.148438 11.878906 C 19.164062 14.0625 19.160156 16.242188 19.15625 18.425781 C 19.15625 18.472656 19.140625 18.523438 19.128906 18.59375 C 18.507812 18.59375 17.898438 18.59375 17.273438 18.59375 C 17.214844 18.402344 17.167969 18.210938 17.101562 18.027344 C 16.769531 17.09375 15.859375 16.542969 14.789062 16.625 C 13.863281 16.695312 13.074219 17.402344 12.871094 18.34375 C 12.679688 19.238281 13.136719 20.207031 13.957031 20.648438 C 15.25 21.351562 16.792969 20.671875 17.171875 19.242188 C 17.199219 19.136719 17.332031 18.988281 17.421875 18.984375 C 17.984375 18.960938 18.546875 18.972656 19.148438 18.972656 C 19.148438 20.289062 19.148438 21.578125 19.148438 22.898438 C 20.152344 22.898438 21.117188 22.898438 22.097656 22.898438 C 20.3125 26.558594 14.554688 28.792969 10.003906 25.308594 Z M 10.003906 25.308594 "/>
<path style=" stroke:none;fill-rule:nonzero;fill:rgb(9.803922%,9.411765%,9.411765%);fill-opacity:1;" d="M 19.78125 11.4375 C 19.78125 11.253906 19.78125 11.109375 19.78125 10.925781 C 19.90625 10.914062 20.015625 10.898438 20.128906 10.898438 C 21.285156 10.894531 22.4375 10.910156 23.59375 10.886719 C 23.933594 10.882812 24.011719 11 24.003906 11.320312 C 23.988281 12.296875 24 13.277344 24 14.253906 C 24 14.382812 24 14.511719 24 14.65625 C 24.792969 14.65625 25.550781 14.65625 26.355469 14.65625 C 26.355469 13.421875 26.355469 12.1875 26.355469 10.921875 C 27.773438 10.921875 29.144531 10.921875 30.546875 10.921875 C 30.546875 12.214844 30.546875 13.5 30.546875 14.828125 C 30.25 14.828125 29.953125 14.847656 29.65625 14.820312 C 29.359375 14.796875 29.21875 14.910156 29.109375 15.191406 C 28.257812 17.417969 27.390625 19.640625 26.527344 21.863281 C 26.5 21.933594 26.464844 22 26.386719 22.171875 C 26.386719 20.890625 26.386719 19.71875 26.386719 18.511719 C 25.574219 18.511719 24.796875 18.511719 23.988281 18.511719 C 23.988281 19.765625 23.988281 21.015625 23.988281 22.285156 C 22.578125 22.285156 21.207031 22.285156 19.78125 22.285156 C 19.78125 18.679688 19.78125 15.078125 19.78125 11.4375 Z M 19.78125 11.4375 "/>
<path style=" stroke:none;fill-rule:nonzero;fill:rgb(9.803922%,9.411765%,9.411765%);fill-opacity:1;" d="M 47.863281 23.867188 C 47.882812 23.742188 47.871094 23.601562 47.929688 23.5 C 48.410156 22.636719 48.894531 21.78125 49.398438 20.929688 C 49.460938 20.824219 49.632812 20.714844 49.753906 20.714844 C 51.300781 20.699219 52.847656 20.707031 54.476562 20.707031 C 54.375 20.886719 54.296875 21.027344 54.210938 21.164062 C 52.792969 23.507812 51.367188 25.84375 49.957031 28.191406 C 49.84375 28.382812 49.785156 28.632812 49.78125 28.859375 C 49.761719 29.925781 49.773438 30.996094 49.773438 32.085938 C 49.679688 32.097656 49.605469 32.121094 49.53125 32.121094 C 48.324219 32.121094 47.117188 32.113281 45.910156 32.125 C 45.636719 32.128906 45.546875 32.046875 45.550781 31.769531 C 45.5625 30.804688 45.570312 29.839844 45.546875 28.875 C 45.539062 28.628906 45.464844 28.351562 45.335938 28.140625 C 43.902344 25.746094 42.453125 23.363281 41.007812 20.976562 C 40.964844 20.910156 40.929688 20.839844 40.871094 20.734375 C 40.996094 20.722656 41.09375 20.707031 41.1875 20.707031 C 42.632812 20.707031 44.074219 20.714844 45.519531 20.699219 C 45.769531 20.695312 45.886719 20.789062 46.003906 20.992188 C 46.546875 21.953125 47.105469 22.90625 47.6875 23.910156 C 47.980469 24.382812 48.167969 24.867188 48.5 25.246094 C 48.542969 25.21875 48.585938 25.191406 48.628906 25.164062 C 48.375 24.730469 48.121094 24.296875 47.863281 23.867188 Z M 47.863281 23.867188 "/>
<path style=" stroke:none;fill-rule:nonzero;fill:rgb(85.09804%,83.137256%,83.137256%);fill-opacity:1;" d="M 47.824219 23.875 C 48.121094 24.296875 48.375 24.730469 48.628906 25.164062 C 48.585938 25.191406 48.542969 25.21875 48.5 25.246094 C 48.167969 24.867188 47.980469 24.382812 47.703125 23.933594 C 47.722656 23.898438 47.75 23.894531 47.824219 23.875 Z M 47.824219 23.875 "/>
<path style=" stroke:none;fill-rule:nonzero;fill:rgb(95.686275%,93.725491%,93.725491%);fill-opacity:1;" d="M 38.347656 24.429688 C 37.707031 22.820312 37.078125 21.234375 36.421875 19.59375 C 37.089844 19.59375 37.699219 19.582031 38.308594 19.609375 C 38.375 19.609375 38.484375 19.832031 38.484375 19.949219 C 38.496094 21.503906 38.492188 23.0625 38.492188 24.699219 C 38.425781 24.574219 38.390625 24.515625 38.347656 24.429688 Z M 38.347656 24.429688 "/>
</g>
</svg>
